<?xml version="1.0" encoding="UTF-8" standalone="no"?>
<!DOCTYPE svg PUBLIC "-//W3C//DTD SVG 1.1//EN" "http://www.w3.org/Graphics/SVG/1.1/DTD/svg11.dtd">
<svg version="1.1" xmlns="http://www.w3.org/2000/svg" xmlns:xlink="http://www.w3.org/1999/xlink" preserveAspectRatio="xMidYMid meet" viewBox="0 0 512 512" width="512" height="512"><defs><path d="M308.3 212.67C260.66 268.54 168.32 376.84 104 452.26C92.39 465.88 70.11 457.66 70.11 439.77C70.11 377.9 70.11 338.73 70.11 300.4C70.11 202.57 141.4 119.33 238.08 104.3C275.57 98.47 211.6 108.41 246.98 102.91C308.43 93.36 348.65 165.35 308.3 212.67Z" id="a1qfDcRGNQ"></path><clipPath id="clipabRVwWQqX"><use xlink:href="#a1qfDcRGNQ" opacity="1"></use></clipPath><path d="M347.36 221.85C300.97 275.36 202.24 392.69 147.57 455.74C137.97 466.81 148.6 483.6 162.71 479.66C214.35 465.26 272.11 449.15 311.29 438.22C376.09 420.15 420.9 361.12 420.9 293.84C420.9 263.17 420.9 283.72 420.9 252.74C420.9 213.97 372.76 192.55 347.36 221.85Z" id="a3SyqmPTq"></path><path d="M315.4 50.69C313.09 53.61 317.24 48.38 314.2 52.22C307.93 60.14 307.03 71.05 311.92 79.88C320.23 94.89 334.01 119.79 341.55 133.41C345.79 141.06 357.21 139.53 359.28 131.03C362.75 116.84 368.38 93.74 372.11 78.44C374.77 67.54 369.89 56.2 360.16 50.63C354.01 47.1 354.49 47.38 348.96 44.22C337.71 37.78 323.45 40.53 315.4 50.69Z" id="e5zZrsKrHl"></path><path d="M447.38 182.58C446.61 187.13 447.43 182.28 446.77 186.22C445.17 195.71 434.82 200.92 426.24 196.56C414.44 190.55 397.63 182 386.16 176.16C377.94 171.98 377.55 160.39 385.46 155.67C394.46 150.29 407.25 142.66 417.25 136.69C424.42 132.41 433.71 135.05 437.56 142.46C440.07 147.27 440.15 147.45 442.58 152.11C447.45 161.47 449.13 172.17 447.38 182.58Z" id="d1dZkAG6kl"></path><path d="M401.06 74.72C396.2 87.89 386.84 113.27 382 126.39C380.7 129.93 385.04 132.8 387.79 130.23C398.01 120.63 412.51 107 421.45 98.61C430.34 90.26 429.08 75.79 418.88 69.1C416.34 67.44 422.68 71.59 418.62 68.93C412.27 64.76 403.69 67.59 401.06 74.72Z" id="cemn9v6AE"></path></defs><g><g><g><use xlink:href="#a1qfDcRGNQ" opacity="1" fill="#d17119" fill-opacity="1"></use><g clip-path="url(#clipabRVwWQqX)"><use xlink:href="#a1qfDcRGNQ" opacity="1" fill-opacity="0" stroke="#d1731b" stroke-width="48" stroke-opacity="1"></use></g></g><g><use xlink:href="#a3SyqmPTq" opacity="1" fill="#c54d20" fill-opacity="1"></use><g><use xlink:href="#a3SyqmPTq" opacity="1" fill-opacity="0" stroke="#c54d20" stroke-width="24" stroke-opacity="1"></use></g></g><g><use xlink:href="#e5zZrsKrHl" opacity="1" fill="#728026" fill-opacity="1"></use><g><use xlink:href="#e5zZrsKrHl" opacity="1" fill-opacity="0" stroke="#728026" stroke-width="12" stroke-opacity="1"></use></g></g><g><use xlink:href="#d1dZkAG6kl" opacity="1" fill="#5a6614" fill-opacity="1"></use><g><use xlink:href="#d1dZkAG6kl" opacity="1" fill-opacity="0" stroke="#5a6614" stroke-width="12" stroke-opacity="1"></use></g></g><g><use xlink:href="#cemn9v6AE" opacity="1" fill="#6a8043" fill-opacity="1"></use><g><use xlink:href="#cemn9v6AE" opacity="1" fill-opacity="0" stroke="#6a8043" stroke-width="12" stroke-opacity="1"></use></g></g></g></g></svg>